<?xml version="1.0" encoding="utf-8"?>
<!-- Generator: Adobe Illustrator 21.0.0, SVG Export Plug-In . SVG Version: 6.00 Build 0)  -->
<svg version="1.1" id="Vrstva_1" xmlns="http://www.w3.org/2000/svg" xmlns:xlink="http://www.w3.org/1999/xlink" x="0px" y="0px"
	 viewBox="0 0 318.1 83.3" enable-background="new 0 0 318.1 83.3" xml:space="preserve">
<g>
	<path fill="#FFFFFF" d="M19.8,52.9h1.1v8.9h5.6v1h-6.7V52.9z"/>
	<path fill="#FFFFFF" d="M27.6,59.1L27.6,59.1c0-2.1,1.6-3.9,3.8-3.9s3.8,1.7,3.8,3.8l0,0c0,2.1-1.6,3.8-3.8,3.8
		C29.2,62.9,27.6,61.2,27.6,59.1z M34.1,59.1L34.1,59.1c0-1.6-1.2-2.9-2.7-2.9c-1.6,0-2.7,1.3-2.7,2.8l0,0c0,1.6,1.2,2.8,2.7,2.8
		C33,62,34.1,60.7,34.1,59.1z"/>
	<path fill="#FFFFFF" d="M36.7,59.1L36.7,59.1c0-2.1,1.6-3.9,3.8-3.9c1.4,0,2.3,0.6,2.9,1.3l-0.7,0.8c-0.6-0.6-1.2-1.1-2.2-1.1
		c-1.5,0-2.6,1.3-2.6,2.8l0,0c0,1.6,1.2,2.8,2.7,2.8c0.9,0,1.7-0.5,2.2-1.1l0.7,0.7c-0.7,0.8-1.6,1.4-3,1.4
		C38.3,62.9,36.7,61.2,36.7,59.1z"/>
	<path fill="#FFFFFF" d="M44.7,60.6L44.7,60.6c0-1.6,1.3-2.4,3.1-2.4c0.9,0,1.6,0.1,2.3,0.3v-0.3c0-1.3-0.8-2-2.2-2
		c-0.9,0-1.5,0.2-2.2,0.5L45.4,56c0.8-0.4,1.6-0.6,2.7-0.6c1,0,1.8,0.3,2.4,0.8c0.5,0.5,0.8,1.2,0.8,2.1v4.5h-1v-1.1
		c-0.5,0.7-1.4,1.3-2.6,1.3C46.1,62.9,44.7,62.2,44.7,60.6z M50.1,60.1v-0.7c-0.5-0.2-1.3-0.3-2.2-0.3c-1.4,0-2.1,0.6-2.1,1.5l0,0
		c0,0.9,0.8,1.5,1.8,1.5C49,62.1,50.1,61.2,50.1,60.1z"/>
	<path fill="#FFFFFF" d="M53.4,52.4h1.1v10.3h-1.1V52.4z"/>
	<path fill="#FFFFFF" d="M64.4,52.8h1l4.5,10h-1.2l-1.2-2.6h-5.4l-1.2,2.6h-1.1L64.4,52.8z M67.2,59.1l-2.3-5l-2.3,5H67.2z"/>
	<path fill="#FFFFFF" d="M71.1,61.8l0.6-0.8c0.8,0.6,1.7,0.9,2.5,0.9c0.9,0,1.5-0.5,1.5-1.2l0,0c0-0.7-0.9-1-1.8-1.3
		c-1.1-0.3-2.4-0.7-2.4-2.1l0,0c0-1.3,1-2.1,2.5-2.1c0.9,0,1.9,0.3,2.6,0.8l-0.5,1c-0.7-0.4-1.5-0.7-2.2-0.7c-0.9,0-1.4,0.5-1.4,1.1
		l0,0c0,0.7,0.9,1,1.9,1.3c1.1,0.3,2.4,0.8,2.4,2.1l0,0c0,1.4-1.1,2.2-2.6,2.2C73.1,62.9,71.9,62.5,71.1,61.8z"/>
	<path fill="#FFFFFF" d="M78.1,61.8l0.6-0.8c0.8,0.6,1.7,0.9,2.5,0.9c0.9,0,1.5-0.5,1.5-1.2l0,0c0-0.7-0.9-1-1.8-1.3
		c-1.1-0.3-2.4-0.7-2.4-2.1l0,0c0-1.3,1-2.1,2.5-2.1c0.9,0,1.9,0.3,2.6,0.8l-0.5,1c-0.7-0.4-1.5-0.7-2.2-0.7c-0.9,0-1.4,0.5-1.4,1.1
		l0,0c0,0.7,0.9,1,1.9,1.3c1.1,0.3,2.4,0.8,2.4,2.1l0,0c0,1.4-1.1,2.2-2.6,2.2C80,62.9,78.9,62.5,78.1,61.8z"/>
	<path fill="#FFFFFF" d="M85.6,52.6h1.2v1.2h-1.2V52.6z M85.6,55.5h1.1v7.3h-1.1V55.5z"/>
	<path fill="#FFFFFF" d="M88.5,61.8l0.6-0.8c0.8,0.6,1.7,0.9,2.5,0.9c0.9,0,1.5-0.5,1.5-1.2l0,0c0-0.7-0.9-1-1.8-1.3
		c-1.1-0.3-2.4-0.7-2.4-2.1l0,0c0-1.3,1-2.1,2.5-2.1c0.9,0,1.9,0.3,2.6,0.8l-0.5,1c-0.7-0.4-1.5-0.7-2.2-0.7c-0.9,0-1.4,0.5-1.4,1.1
		l0,0c0,0.7,0.9,1,1.9,1.3c1.1,0.3,2.4,0.8,2.4,2.1l0,0c0,1.4-1.1,2.2-2.6,2.2C90.5,62.9,89.3,62.5,88.5,61.8z"/>
	<path fill="#FFFFFF" d="M96.3,60.8v-4.4h-1v-1h1v-2.2h1.1v2.2h2.3v1h-2.3v4.3c0,0.9,0.5,1.2,1.2,1.2c0.4,0,0.7-0.1,1.1-0.3v0.9
		c-0.4,0.2-0.8,0.3-1.3,0.3C97.2,62.9,96.3,62.3,96.3,60.8z"/>
	<path fill="#FFFFFF" d="M101,60.6L101,60.6c0-1.6,1.3-2.4,3.1-2.4c0.9,0,1.6,0.1,2.3,0.3v-0.3c0-1.3-0.8-2-2.2-2
		c-0.9,0-1.5,0.2-2.2,0.5l-0.3-0.9c0.8-0.4,1.6-0.6,2.7-0.6c1,0,1.8,0.3,2.4,0.8c0.5,0.5,0.8,1.2,0.8,2.1v4.5h-1v-1.1
		c-0.5,0.7-1.4,1.3-2.6,1.3C102.3,62.9,101,62.2,101,60.6z M106.4,60.1v-0.7c-0.5-0.2-1.3-0.3-2.2-0.3c-1.4,0-2.1,0.6-2.1,1.5l0,0
		c0,0.9,0.8,1.5,1.8,1.5C105.3,62.1,106.4,61.2,106.4,60.1z"/>
	<path fill="#FFFFFF" d="M109.7,55.5h1.1v1.3c0.5-0.8,1.2-1.4,2.5-1.4c1.8,0,2.8,1.2,2.8,2.9v4.5H115v-4.3c0-1.4-0.7-2.2-2-2.2
		s-2.2,0.9-2.2,2.3v4.2h-1.1C109.7,62.8,109.7,55.5,109.7,55.5z"/>
	<path fill="#FFFFFF" d="M117.9,59.1L117.9,59.1c0-2.1,1.6-3.9,3.8-3.9c1.4,0,2.3,0.6,2.9,1.3l-0.7,0.8c-0.6-0.6-1.2-1.1-2.2-1.1
		c-1.5,0-2.6,1.3-2.6,2.8l0,0c0,1.6,1.2,2.8,2.7,2.8c0.9,0,1.7-0.5,2.2-1.1l0.7,0.7c-0.7,0.8-1.6,1.4-3,1.4
		C119.5,62.9,117.9,61.2,117.9,59.1z"/>
	<path fill="#FFFFFF" d="M125.7,59.1L125.7,59.1c0-2.1,1.5-3.8,3.5-3.8c2.2,0,3.4,1.7,3.4,3.9c0,0.1,0,0.2,0,0.4h-5.8
		c0.2,1.6,1.3,2.5,2.6,2.5c1,0,1.7-0.4,2.3-1l0.7,0.6c-0.7,0.8-1.6,1.4-3,1.4C127.4,62.9,125.7,61.4,125.7,59.1z M131.5,58.7
		c-0.1-1.3-0.9-2.5-2.3-2.5c-1.3,0-2.2,1.1-2.4,2.5H131.5z"/>
	<path fill="#FFFFFF" d="M138.4,57.9h3.9V59h-3.9V57.9z"/>
	<path fill="#FFFFFF" d="M147.7,52.9h1.2l2.8,8.3l2.7-8.3h0.9l2.7,8.3l2.8-8.3h1.2l-3.5,10h-0.9l-2.7-8l-2.7,8h-0.9L147.7,52.9z"/>
	<path fill="#FFFFFF" d="M162.6,59.1L162.6,59.1c0-2.1,1.6-3.9,3.8-3.9s3.8,1.7,3.8,3.8l0,0c0,2.1-1.6,3.8-3.8,3.8
		C164.2,62.9,162.6,61.2,162.6,59.1z M169.2,59.1L169.2,59.1c0-1.6-1.2-2.9-2.7-2.9c-1.6,0-2.7,1.3-2.7,2.8l0,0
		c0,1.6,1.2,2.8,2.7,2.8C168,62,169.2,60.7,169.2,59.1z"/>
	<path fill="#FFFFFF" d="M172.1,55.5h1.1v1.9c0.5-1.2,1.6-2.1,3-2v1.2H176c-1.6,0-2.9,1.1-2.9,3.4v2.9H172v-7.4H172.1z"/>
	<path fill="#FFFFFF" d="M177.7,52.4h1.1v10.3h-1.1V52.4z"/>
	<path fill="#FFFFFF" d="M180.7,59.1L180.7,59.1c0-2.4,1.7-3.8,3.5-3.8c1.4,0,2.2,0.7,2.8,1.6v-4.4h1.1v10.3H187v-1.5
		c-0.6,0.9-1.5,1.6-2.8,1.6C182.4,62.9,180.7,61.5,180.7,59.1z M187,59.1L187,59.1c0-1.7-1.3-2.8-2.6-2.8c-1.4,0-2.6,1-2.6,2.8l0,0
		c0,1.7,1.2,2.8,2.6,2.8C185.8,62,187,60.8,187,59.1z"/>
	<path fill="#FFFFFF" d="M189.7,55.5h1.2l1.9,5.9l2-5.9h0.9l2,5.9l1.9-5.9h1.1l-2.6,7.4h-0.9l-2-5.8l-2,5.8h-1L189.7,55.5z"/>
	<path fill="#FFFFFF" d="M202.3,52.6h1.2v1.2h-1.2V52.6z M202.4,55.5h1.1v7.3h-1.1V55.5z"/>
	<path fill="#FFFFFF" d="M205.4,59.1L205.4,59.1c0-2.4,1.7-3.8,3.5-3.8c1.4,0,2.2,0.7,2.8,1.6v-4.4h1.1v10.3h-1.1v-1.5
		c-0.6,0.9-1.5,1.6-2.8,1.6C207.1,62.9,205.4,61.5,205.4,59.1z M211.8,59.1L211.8,59.1c0-1.7-1.3-2.8-2.6-2.8c-1.4,0-2.6,1-2.6,2.8
		l0,0c0,1.7,1.2,2.8,2.6,2.8C210.5,62,211.8,60.8,211.8,59.1z"/>
	<path fill="#FFFFFF" d="M214.7,59.1L214.7,59.1c0-2.1,1.5-3.8,3.5-3.8c2.2,0,3.4,1.7,3.4,3.9c0,0.1,0,0.2,0,0.4h-5.8
		c0.2,1.6,1.3,2.5,2.6,2.5c1,0,1.7-0.4,2.3-1l0.7,0.6c-0.7,0.8-1.6,1.4-3,1.4C216.4,62.9,214.7,61.4,214.7,59.1z M220.6,58.7
		c-0.1-1.3-0.9-2.5-2.3-2.5c-1.3,0-2.2,1.1-2.4,2.5H220.6z"/>
</g>
<g>
	<path fill="#FFFFFF" d="M20,24.6h14.6v3.8H24.2v3.9h9.1v3.8h-9.1v4.1h10.5V44H20V24.6z"/>
	<path fill="#FFFFFF" d="M46,44.3c-2.6,0-4.6-0.7-6.1-2.2c-1.5-1.4-2.2-3.6-2.2-6.4v-11H42v10.9c0,1.6,0.4,2.8,1.1,3.6
		c0.7,0.8,1.8,1.2,3.1,1.2s2.3-0.4,3.1-1.2c0.7-0.8,1.1-1.9,1.1-3.5V24.6h4.3v10.9c0,1.5-0.2,2.8-0.6,3.8c-0.4,1.1-1,2-1.7,2.7
		s-1.6,1.3-2.7,1.6C48.5,44.1,47.3,44.3,46,44.3z"/>
	<path fill="#FFFFFF" d="M58.1,24.6h8.8c2.4,0,4.3,0.7,5.6,2c1.1,1.1,1.7,2.6,1.7,4.4v0.1c0,1.6-0.4,2.8-1.1,3.8
		c-0.8,1-1.8,1.7-3,2.2l4.7,6.9h-5l-4.1-6.2h-3.3V44h-4.3V24.6z M66.7,34c1,0,1.9-0.2,2.4-0.7c0.6-0.5,0.8-1.2,0.8-2v-0.1
		c0-0.9-0.3-1.6-0.9-2.1s-1.4-0.7-2.5-0.7h-4.2V34H66.7z"/>
	<path fill="#FFFFFF" d="M86.6,44.3c-1.5,0-2.9-0.3-4.1-0.8c-1.3-0.5-2.3-1.2-3.2-2.1c-0.9-0.9-1.6-1.9-2.1-3.1
		c-0.5-1.2-0.8-2.5-0.8-3.9v-0.1c0-1.4,0.3-2.7,0.8-3.9c0.5-1.2,1.2-2.3,2.1-3.2c0.9-0.9,2-1.6,3.3-2.2c1.3-0.5,2.6-0.8,4.1-0.8
		s2.9,0.3,4.1,0.8c1.3,0.5,2.3,1.2,3.2,2.1c0.9,0.9,1.6,1.9,2.1,3.1s0.8,2.5,0.8,3.9v0.1c0,1.4-0.3,2.7-0.8,3.9s-1.2,2.3-2.1,3.2
		s-2,1.6-3.3,2.2C89.5,44,88.1,44.3,86.6,44.3z M86.7,40.4c0.8,0,1.6-0.2,2.3-0.5c0.7-0.3,1.3-0.7,1.8-1.3s0.9-1.2,1.2-1.9
		c0.3-0.7,0.4-1.5,0.4-2.3v-0.1c0-0.8-0.1-1.6-0.4-2.3c-0.3-0.7-0.7-1.4-1.2-1.9c-0.5-0.6-1.1-1-1.9-1.3c-0.7-0.3-1.5-0.5-2.3-0.5
		c-0.9,0-1.7,0.2-2.4,0.5C83.6,29,83,29.4,82.5,30s-0.9,1.2-1.2,1.9c-0.3,0.7-0.4,1.5-0.4,2.3v0.1c0,0.8,0.1,1.6,0.4,2.3
		s0.7,1.4,1.2,1.9c0.5,0.6,1.1,1,1.9,1.3C85,40.2,85.8,40.4,86.7,40.4z"/>
	<path fill="#FFFFFF" d="M120.5,44.3c-1.4,0-2.7-0.3-3.9-0.8c-1.2-0.5-2.3-1.2-3.1-2.1c-0.9-0.9-1.6-1.9-2.1-3.2
		c-0.5-1.2-0.7-2.5-0.7-3.9v-0.1c0-1.4,0.2-2.7,0.7-3.9c0.5-1.2,1.2-2.3,2.1-3.2c0.9-0.9,1.9-1.6,3.2-2.2c1.2-0.5,2.6-0.8,4.1-0.8
		c0.9,0,1.7,0.1,2.5,0.2c0.7,0.1,1.4,0.3,2,0.6c0.6,0.3,1.2,0.6,1.7,0.9c0.5,0.4,1,0.8,1.4,1.2l-2.7,3.1c-0.8-0.7-1.5-1.2-2.3-1.6
		s-1.7-0.6-2.6-0.6c-0.8,0-1.6,0.2-2.3,0.5c-0.7,0.3-1.3,0.7-1.8,1.3c-0.5,0.6-0.9,1.2-1.2,1.9c-0.3,0.7-0.4,1.5-0.4,2.3V34
		c0,0.8,0.1,1.6,0.4,2.3s0.7,1.4,1.1,1.9c0.5,0.6,1.1,1,1.8,1.3c0.7,0.3,1.4,0.5,2.3,0.5c1.1,0,2-0.2,2.8-0.6c0.8-0.4,1.5-1,2.3-1.7
		l2.7,2.7c-0.5,0.5-1,1-1.5,1.4s-1.1,0.8-1.8,1.1c-0.6,0.3-1.3,0.5-2.1,0.7C122.3,44.2,121.4,44.3,120.5,44.3z"/>
	<path fill="#FFFFFF" d="M130.9,24.6h14.6v3.8h-10.4v3.9h9.1v3.8h-9.1v4.1h10.5V44h-14.7L130.9,24.6L130.9,24.6z"/>
	<path fill="#FFFFFF" d="M148.9,24.6h3.9l9.1,11.9V24.6h4.2V44h-3.6l-9.4-12.3V44h-4.2V24.6z"/>
	<path fill="#FFFFFF" d="M174.3,28.5h-5.9v-3.9h16v3.9h-5.9V44h-4.3L174.3,28.5L174.3,28.5z"/>
	<path fill="#FFFFFF" d="M187,24.6h14.6v3.8h-10.4v3.9h9.1v3.8h-9.1v4.1h10.5V44H187V24.6z"/>
	<path fill="#FFFFFF" d="M205.1,24.6h8.8c2.4,0,4.3,0.7,5.6,2c1.1,1.1,1.7,2.6,1.7,4.4v0.1c0,1.6-0.4,2.8-1.1,3.8
		c-0.8,1-1.8,1.7-3,2.2l4.7,6.9h-5l-4.1-6.2h-3.3V44h-4.3L205.1,24.6L205.1,24.6z M213.6,34c1,0,1.9-0.2,2.4-0.7
		c0.6-0.5,0.8-1.2,0.8-2v-0.1c0-0.9-0.3-1.6-0.9-2.1c-0.6-0.5-1.4-0.7-2.5-0.7h-4.2V34H213.6z"/>
</g>
<g>
	<g>
		
			<radialGradient id="SVGID_1_" cx="544.0069" cy="-240.4131" r="46.2865" gradientTransform="matrix(0.6564 0 0 -0.6466 -85.8734 -116.5891)" gradientUnits="userSpaceOnUse">
			<stop  offset="0.53" style="stop-color:#008DD2"/>
			<stop  offset="0.9701" style="stop-color:#25408F"/>
		</radialGradient>
		<path fill="url(#SVGID_1_)" d="M281.1,19c-0.2-5.1-5.3-8.8-11.8-9c-5.8-0.2-12.8,2.5-18.3,8.8c-6.3,7.1-8.2,13.7-8.3,19.1
			c-0.3,10.7,5.5,16.3,6.4,17.2c0.9,0.8,7.6,6.7,19.2,5.5c6.5-0.7,11.6-3.1,14.7-5c-2.1,1-4.4,1.6-6.9,1.6
			c-8.5,0-15.4-6.9-15.4-15.4s6.9-15.4,15.4-15.4c0.9,0,1.9,0.1,2.8,0.3C280.3,24.5,281.3,22,281.1,19z"/>
	</g>
	<path fill="#C7CD3D" d="M300.5,52.8v13.9c0,0-6.2,6.4-14.7,8.7c-3.9,1.1-8.5,1.8-13.1,1.4c-5.6-0.5-11.1-2.5-15.5-5.4
		c-12.6-8.1-17.5-22-16.3-33.7c1-9.3,6.4-18.5,15-24.5c5.9-4.1,13.2-6.9,21.8-6.4c19.2,1.1,25.6,13.8,21.6,25.1
		C296.4,40,284,48.4,284,48.4h-13.9l0.1-14.3c0,0,11.5-5.5,11-15.2c-0.2-5.1-5.3-8.8-11.8-9c-5.8-0.2-12.8,2.5-18.3,8.8
		c-6.3,7.1-8.2,13.7-8.3,19.1c-0.3,10.7,5.5,16.3,6.4,17.2c0.9,0.8,7.6,6.7,19.2,5.5s18.4-7.8,18.4-7.8L300.5,52.8z"/>
</g>
<g>
	<rect x="99.1" y="32.2" fill="#FFFFFF" width="8.6" height="4"/>
</g>
</svg>
